HIERARCHY
ROOT hip
{
  OFFSET 0 0 0
  CHANNELS 6 Xposition Yposition Zposition Zrotation Yrotation Xrotation
  JOINT abdomen
  {
    OFFSET 0 20.6881 -0.73152
    CHANNELS 3 Zrotation Xrotation Yrotation
    JOINT chest
    {
      OFFSET 0 11.7043 -0.48768
      CHANNELS 3 Zrotation Xrotation Yrotation
      JOINT neck
      {
        OFFSET 0 22.1894 -2.19456
        CHANNELS 3 Zrotation Xrotation Yrotation
        JOINT head
        {
          OFFSET -0.24384 7.07133 1.2192
          CHANNELS 3 Zrotation Xrotation Yrotation
          JOINT leftEye
          {
            OFFSET 4.14528 8.04674 8.04672
            CHANNELS 3 Zrotation Xrotation Yrotation
            End Site
            {
              OFFSET 1 0 0
            }
          }
          JOINT rightEye
          {
            OFFSET -3.6576 8.04674 8.04672
            CHANNELS 3 Zrotation Xrotation Yrotation
            End Site
            {
              OFFSET 1 0 0
            }
          }
        }
      }
      JOINT rCollar
      {
        OFFSET -2.68224 19.2634 -4.8768
        CHANNELS 3 Zrotation Xrotation Yrotation
        JOINT rShldr
        {
          OFFSET -8.77824 -1.95073 1.46304
          CHANNELS 3 Zrotation Xrotation Yrotation
          JOINT rForeArm
          {
            OFFSET -28.1742 -1.7115 0.48768
            CHANNELS 3 Zrotation Xrotation Yrotation
            JOINT rHand
            {
              OFFSET -22.5879 0.773209 7.07136
              CHANNELS 3 Zrotation Xrotation Yrotation
              JOINT rThumb1
              {
                OFFSET -1.2192 -0.487915 3.41376
                CHANNELS 3 Zrotation Xrotation Yrotation
                JOINT rThumb2
                {
                  OFFSET -3.37035 -0.52449 3.41376
                  CHANNELS 3 Zrotation Xrotation Yrotation
                  End Site
                  {
                    OFFSET -1.78271 -1.18214 1.43049
                  }
                }
              }
              JOINT rIndex1
              {
                OFFSET -7.75947 0.938293 5.60832
                CHANNELS 3 Zrotation Xrotation Yrotation
                JOINT rIndex2
                {
                  OFFSET -2.54057 -0.884171 1.56538
                  CHANNELS 3 Zrotation Xrotation Yrotation
                  End Site
                  {
                    OFFSET -1.62519 -0.234802 1.16502
                  }
                }
              }
              JOINT rMid1
              {
                OFFSET -8.24714 1.18213 3.41376
                CHANNELS 3 Zrotation Xrotation Yrotation
                JOINT rMid2
                {
                  OFFSET -3.10165 -0.590103 1.0647
                  CHANNELS 3 Zrotation Xrotation Yrotation
                  End Site
                  {
                    OFFSET -2.48547 -0.328903 0.83742
                  }
                }
              }
              JOINT rRing1
              {
                OFFSET -8.82822 0.546677 1.51678
                CHANNELS 3 Zrotation Xrotation Yrotation
                JOINT rRing2
                {
                  OFFSET -2.60934 -0.819778 -0.0198488
                  CHANNELS 3 Zrotation Xrotation Yrotation
                  End Site
                  {
                    OFFSET -2.33842 -0.294052 0.168128
                  }
                }
              }
              JOINT rPinky1
              {
                OFFSET -8.27202 -0.0477905 -0.4584
                CHANNELS 3 Zrotation Xrotation Yrotation
                JOINT rPinky2
                {
                  OFFSET -1.82734 -0.647385 -0.700984
                  CHANNELS 3 Zrotation Xrotation Yrotation
                  End Site
                  {
                    OFFSET -1.69225 -0.51767 -0.607171
                  }
                }
              }
            }
          }
        }
      }
      JOINT lCollar
      {
        OFFSET 2.68224 19.2634 -4.8768
        CHANNELS 3 Zrotation Xrotation Yrotation
        JOINT lShldr
        {
          OFFSET 8.77824 -1.95073 1.46304
          CHANNELS 3 Zrotation Xrotation Yrotation
          JOINT lForeArm
          {
            OFFSET 28.1742 -1.7115 0.48768
            CHANNELS 3 Zrotation Xrotation Yrotation
            JOINT lHand
            {
              OFFSET 22.5879 0.773209 7.07136
              CHANNELS 3 Zrotation Xrotation Yrotation
              JOINT lThumb1
              {
                OFFSET 1.2192 -0.487915 3.41376
                CHANNELS 3 Zrotation Xrotation Yrotation
                JOINT lThumb2
                {
                  OFFSET 3.37035 -0.52449 3.41376
                  CHANNELS 3 Zrotation Xrotation Yrotation
                  End Site
                  {
                    OFFSET 1.78271 -1.18214 1.43049
                  }
                }
              }
              JOINT lIndex1
              {
                OFFSET 7.75947 0.938293 5.60832
                CHANNELS 3 Zrotation Xrotation Yrotation
                JOINT lIndex2
                {
                  OFFSET 2.54057 -0.884171 1.56538
                  CHANNELS 3 Zrotation Xrotation Yrotation
                  End Site
                  {
                    OFFSET 1.62519 -0.234802 1.16502
                  }
                }
              }
              JOINT lMid1
              {
                OFFSET 8.24714 1.18213 3.41376
                CHANNELS 3 Zrotation Xrotation Yrotation
                JOINT lMid2
                {
                  OFFSET 3.10165 -0.590103 1.0647
                  CHANNELS 3 Zrotation Xrotation Yrotation
                  End Site
                  {
                    OFFSET 2.48547 -0.328903 0.83742
                  }
                }
              }
              JOINT lRing1
              {
                OFFSET 8.82822 0.546677 1.51678
                CHANNELS 3 Zrotation Xrotation Yrotation
                JOINT lRing2
                {
                  OFFSET 2.60934 -0.819778 -0.0198488
                  CHANNELS 3 Zrotation Xrotation Yrotation
                  End Site
                  {
                    OFFSET 2.33842 -0.294052 0.168128
                  }
                }
              }
              JOINT lPinky1
              {
                OFFSET 8.27202 -0.0477905 -0.4584
                CHANNELS 3 Zrotation Xrotation Yrotation
                JOINT lPinky2
                {
                  OFFSET 1.82734 -0.647385 -0.700984
                  CHANNELS 3 Zrotation Xrotation Yrotation
                  End Site
                  {
                    OFFSET 1.69225 -0.51767 -0.607171
                  }
                }
              }
            }
          }
        }
      }
    }
  }
  JOINT rButtock
  {
    OFFSET -8.77824 4.35084 1.2192
    CHANNELS 3 Zrotation Xrotation Yrotation
    JOINT rThigh
    {
      OFFSET 0 -1.70687 -2.19456
      CHANNELS 3 Zrotation Xrotation Yrotation
      JOINT rShin
      {
        OFFSET 0 -36.8199 0.73152
        CHANNELS 3 Zrotation Xrotation Yrotation
        JOINT rFoot
        {
          OFFSET 0.73152 -45.1104 -5.12064
          CHANNELS 3 Zrotation Xrotation Yrotation
          End Site
          {
            OFFSET -1.1221 -3.69964 12.103
          }
        }
      }
    }
  }
  JOINT lButtock
  {
    OFFSET 8.77824 4.35084 1.2192
    CHANNELS 3 Zrotation Xrotation Yrotation
    JOINT lThigh
    {
      OFFSET 0 -1.70687 -2.19456
      CHANNELS 3 Zrotation Xrotation Yrotation
      JOINT lShin
      {
        OFFSET 0 -36.8199 0.73152
        CHANNELS 3 Zrotation Xrotation Yrotation
        JOINT lFoot
        {
          OFFSET -0.73152 -45.1104 -5.12064
          CHANNELS 3 Zrotation Xrotation Yrotation
          End Site
          {
            OFFSET 1.1221 -3.69964 12.103
          }
        }
      }
    }
  }
}
MOTION
Frames:	6
Frame Time:	0.00833333
4.33714 129.124 -92.1621 1.855 -7.9685 5.3197 -1.33634 16.8427 4.63314 0.202637 -6.69793 1.26436 -11.8213 4.43894 -4.22391 14.8656 -14.1151 -4.12295 -0.0 0.0 0.0 -0.0 0.0 0.0 -3.19972e-15 -1.62317e-13 -9.42402e-14 78.6683 -31.8141 -3.55474 -7.56219 -2.77408 13.3203 -0.883118 25.2131 3.80455 -4.47985e-10 -7.87239e-10 4.77481e-09 -6.90833e-10 -1.33887e-09 8.25723e-09 -4.47985e-10 -7.87236e-10 4.7748e-09 7.73091 5.47488 0.417314 -4.47985e-10 -7.87238e-10 4.77481e-09 2.90554 0.965183 0.102902 -4.47984e-10 -7.87238e-10 4.77481e-09 10.2786 0.731801 0.0259123 -4.47987e-10 -7.87236e-10 4.77482e-09 2.22167 -0.733487 -0.20892 -3.23961e-15 -1.62323e-13 -9.45625e-14 -83.319 9.12349 -0.325737 15.6648 -8.35573 -29.0512 0.124218 -11.8365 1.6801 -1.46027e-09 -1.87882e-09 -1.98277e-09 -2.52222e-09 -3.24269e-09 -3.43969e-09 -1.46027e-09 -1.87882e-09 -1.98275e-09 -7.73091 5.47488 -0.417314 -1.46027e-09 -1.87882e-09 -1.98277e-09 -2.90554 0.965183 -0.102902 -1.46028e-09 -1.87882e-09 -1.98277e-09 -10.2786 0.731801 -0.0259123 -1.46027e-09 -1.87882e-09 -1.98278e-09 -2.22167 -0.733487 0.20892 -2.03217e-16 0.0 -3.88251e-19 -3.13365 -26.9912 -11.3973 -0.384025 39.2957 0.244265 5.42242 32.2231 -12.1809 2.03217e-16 0.0 3.88251e-19 2.72441 -28.1144 4.91085 0.379979 42.8774 -0.860092 7.52832 34.1784 -14.033
4.26601 129.755 -92.3677 1.868 -7.9199 5.5847 -1.25366 17.0536 4.50583 0.0644006 -6.89713 1.22257 -11.6587 4.12872 -4.28055 14.9938 -13.7962 -4.23567 -0.0 0.0 0.0 -0.0 0.0 0.0 3.80563e-14 -2.35856e-13 -1.1609e-13 79.522 -30.6642 -4.09767 -7.76124 -2.87294 13.6869 -0.77403 23.6546 3.5385 -4.36814e-10 -1.25913e-09 5.87486e-09 -6.6033e-10 -2.15031e-09 1.0157e-08 -4.36814e-10 -1.25913e-09 5.87485e-09 7.73091 5.47488 0.417314 -4.36816e-10 -1.25913e-09 5.87486e-09 2.90554 0.965183 0.102902 -4.36812e-10 -1.25913e-09 5.87486e-09 10.2786 0.731801 0.0259123 -4.36817e-10 -1.25913e-09 5.87487e-09 2.22167 -0.733487 -0.20892 3.80031e-14 -2.3586e-13 -1.1637e-13 -83.678 7.8775 -0.368689 14.7656 -7.57783 -27.1622 -0.0185966 -7.10825 0.994037 -1.63362e-09 -1.93605e-09 -3.31959e-09 -2.8278e-09 -3.34344e-09 -5.74623e-09 -1.63363e-09 -1.93604e-09 -3.31957e-09 -7.73091 5.47488 -0.417314 -1.63362e-09 -1.93605e-09 -3.31959e-09 -2.90554 0.965183 -0.102902 -1.63363e-09 -1.93604e-09 -3.31959e-09 -10.2786 0.731801 -0.0259123 -1.63362e-09 -1.93605e-09 -3.3196e-09 -2.22167 -0.733487 0.20892 -2.03217e-16 0.0 -3.88251e-19 -3.08009 -27.4957 -11.9845 -0.390115 39.6139 0.255319 5.38891 31.4242 -12.4489 2.03217e-16 0.0 3.88251e-19 2.93311 -28.7802 4.79515 0.389476 43.2017 -0.859161 7.06408 33.1044 -13.5541
4.18399 130.359 -92.4008 1.7574 -7.9829 5.5327 -1.16868 17.292 4.40242 -0.0483781 -7.1073 1.18909 -11.4727 3.91082 -4.33333 15.0888 -13.6587 -4.34422 -0.0 0.0 0.0 -0.0 0.0 0.0 7.99033e-14 -2.90858e-13 -1.32499e-13 80.3555 -28.1979 -4.63433 -8.13772 -3.07395 14.3677 -0.597091 21.0649 3.10743 -4.15001e-10 -1.67327e-09 6.51323e-09 -6.17364e-10 -2.86358e-09 1.12586e-08 -4.14997e-10 -1.67327e-09 6.51322e-09 7.73091 5.47488 0.417314 -4.15002e-10 -1.67327e-09 6.51324e-09 2.90554 0.965183 0.102902 -4.14997e-10 -1.67327e-09 6.51324e-09 10.2786 0.731801 0.0259123 -4.15004e-10 -1.67326e-09 6.51325e-09 2.22167 -0.733487 -0.20892 7.98367e-14 -2.90861e-13 -1.32732e-13 -84.0656 6.62691 -0.338412 13.9878 -6.95213 -25.5256 -0.0457151 -2.25254 0.311676 -1.68413e-09 -1.76795e-09 -4.47037e-09 -2.92017e-09 -3.05401e-09 -7.73054e-09 -1.68414e-09 -1.76794e-09 -4.47036e-09 -7.73091 5.47488 -0.417314 -1.68413e-09 -1.76795e-09 -4.47038e-09 -2.90554 0.965183 -0.102902 -1.68414e-09 -1.76795e-09 -4.47038e-09 -10.2786 0.731801 -0.0259123 -1.68413e-09 -1.76795e-09 -4.47038e-09 -2.22167 -0.733487 0.20892 -2.03217e-16 0.0 -3.88251e-19 -3.00623 -27.9484 -12.5313 -0.393928 39.835 0.267161 5.29073 30.6825 -12.5669 2.03217e-16 0.0 3.88251e-19 3.18616 -29.3949 4.75163 0.39715 43.4416 -0.855156 6.59765 32.0354 -13.0406
4.13351 130.934 -92.421 1.6751 -7.9361 5.4846 -1.11893 17.5001 4.29859 -0.061888 -7.23892 1.15995 -11.3892 3.85622 -4.34425 15.1422 -13.7447 -4.35613 -0.0 0.0 0.0 -0.0 0.0 0.0 9.88359e-14 -3.05332e-13 -1.18376e-13 81.0814 -25.3684 -5.10388 -8.58682 -3.32574 15.1767 -0.428611 18.2886 2.66226 -4.24882e-10 -1.64188e-09 6.40261e-09 -6.38296e-10 -2.80937e-09 1.10664e-08 -4.24877e-10 -1.64188e-09 6.40259e-09 7.73091 5.47488 0.417314 -4.24884e-10 -1.64188e-09 6.40261e-09 2.90554 0.965183 0.102902 -4.24878e-10 -1.64188e-09 6.40261e-09 10.2786 0.731801 0.0259123 -4.24886e-10 -1.64188e-09 6.40263e-09 2.22167 -0.733487 -0.20892 9.87626e-14 -3.05334e-13 -1.18575e-13 -84.5176 5.67441 -0.258311 13.338 -6.43246 -24.2314 0.00114604 0.9666 -0.13586 -1.62935e-09 -1.67306e-09 -4.73985e-09 -2.82804e-09 -2.8914e-09 -8.19274e-09 -1.62936e-09 -1.67306e-09 -4.73984e-09 -7.73091 5.47488 -0.417314 -1.62935e-09 -1.67307e-09 -4.73986e-09 -2.90554 0.965183 -0.102902 -1.62936e-09 -1.67306e-09 -4.73986e-09 -10.2786 0.731801 -0.0259123 -1.62935e-09 -1.67307e-09 -4.73986e-09 -2.22167 -0.733487 0.20892 -2.03217e-16 0.0 -3.88251e-19 -2.93403 -28.3669 -12.9753 -0.396147 39.9839 0.277584 5.18211 30.0446 -12.6195 2.03217e-16 0.0 3.88251e-19 3.44592 -29.9421 4.7688 0.401926 43.5631 -0.847543 6.14871 31.0475 -12.4997
4.089 131.438 -92.505 1.5964 -7.89 5.6234 -1.13518 17.6712 4.22062 0.0716073 -7.25542 1.14407 -11.4693 4.12869 -4.29531 15.1587 -14.2775 -4.22557 -0.0 0.0 0.0 -0.0 0.0 0.0 8.05424e-14 -2.53625e-13 -4.76679e-14 81.6677 -21.9989 -5.48598 -9.12374 -3.63515 16.1552 -0.253944 15.0278 2.15589 -5.01443e-10 -8.08448e-10 5.02617e-09 -7.89765e-10 -1.37297e-09 8.68786e-09 -5.01435e-10 -8.08448e-10 5.02615e-09 7.73091 5.47488 0.417314 -5.01445e-10 -8.08449e-10 5.02617e-09 2.90554 0.965183 0.102902 -5.01438e-10 -8.08448e-10 5.02617e-09 10.2786 0.731801 0.0259123 -5.01447e-10 -8.08444e-10 5.02618e-09 2.22167 -0.733487 -0.20892 8.04739e-14 -2.53624e-13 -4.78392e-14 -85.0527 5.10824 -0.154476 12.8519 -6.04433 -23.3137 0.0283599 1.98482 -0.277416 -1.38986e-09 -1.72806e-09 -3.53285e-09 -2.41292e-09 -2.98864e-09 -6.10429e-09 -1.38987e-09 -1.72806e-09 -3.53285e-09 -7.73091 5.47488 -0.417314 -1.38987e-09 -1.72806e-09 -3.53286e-09 -2.90554 0.965183 -0.102902 -1.38987e-09 -1.72806e-09 -3.53286e-09 -10.2786 0.731801 -0.0259123 -1.38986e-09 -1.72806e-09 -3.53286e-09 -2.22167 -0.733487 0.20892 -2.03217e-16 0.0 -3.88251e-19 -2.84847 -28.7687 -13.2696 -0.396859 40.0683 0.285915 5.08351 29.5356 -12.6345 2.03217e-16 0.0 3.88251e-19 3.72857 -30.4207 4.89384 0.403503 43.546 -0.835301 5.70862 30.1702 -11.9001
4.02029 131.88 -92.5693 1.5568 -8.1409 5.6739 -1.19098 17.8333 4.1707 0.303568 -7.20877 1.14025 -11.6379 4.64214 -4.20954 15.1453 -15.1643 -4.00843 -0.0 0.0 0.0 -0.0 0.0 0.0 4.024e-14 -1.5406e-13 5.97907e-14 82.1861 -17.7283 -5.83154 -9.77799 -4.01794 17.3733 -0.103098 11.0036 1.55702 -6.14204e-10 5.35852e-10 2.68389e-09 -1.01562e-09 9.4326e-10 4.64068e-09 -6.14192e-10 5.35852e-10 2.68387e-09 7.73091 5.47488 0.417314 -6.14206e-10 5.35851e-10 2.68389e-09 2.90554 0.965183 0.102902 -6.14199e-10 5.35852e-10 2.68389e-09 10.2786 0.731801 0.0259123 -6.14209e-10 5.35856e-10 2.6839e-09 2.22167 -0.733487 -0.20892 4.01834e-14 -1.54057e-13 5.96447e-14 -85.647 4.76442 -0.00792762 12.547 -5.8207 -22.714 0.0267993 1.77311 -0.247715 -9.84343e-10 -1.7747e-09 -1.35678e-09 -1.70819e-09 -3.07161e-09 -2.34131e-09 -9.84349e-10 -1.7747e-09 -1.35677e-09 -7.73091 5.47488 -0.417314 -9.84344e-10 -1.7747e-09 -1.35678e-09 -2.90554 0.965183 -0.102902 -9.84352e-10 -1.7747e-09 -1.35678e-09 -10.2786 0.731801 -0.0259123 -9.8434e-10 -1.77469e-09 -1.35678e-09 -2.22167 -0.733487 0.20892 -2.03217e-16 0.0 -3.88251e-19 -2.73879 -29.1426 -13.4545 -0.395629 40.0744 0.29329 4.97004 29.1258 -12.5671 2.03217e-16 0.0 3.88251e-19 4.04999 -30.8379 5.11814 0.402572 43.4121 -0.819075 5.27244 29.3586 -11.2476
